<mxfile host="app.diagrams.net" modified="2022-08-02T14:41:45.331Z" agent="5.0 (Macintosh; Intel Mac OS X 10_15_7) AppleWebKit/537.36 (KHTML, like Gecko) Chrome/103.0.0.0 Safari/537.36" etag="iqN1S-o-2IbmJEMoBpOn" version="20.2.2" type="github">
  <diagram id="B5rC7m3b_iPBThQXJmOQ" name="Page-1">
    <mxGraphModel dx="791" dy="571" grid="1" gridSize="10" guides="1" tooltips="1" connect="1" arrows="1" fold="1" page="1" pageScale="1" pageWidth="1169" pageHeight="827" math="0" shadow="0">
      <root>
        <mxCell id="0" />
        <mxCell id="1" parent="0" />
        <mxCell id="k4iZCT5LvtZg_ZwIzSfa-2" value="" style="outlineConnect=0;dashed=0;verticalLabelPosition=bottom;verticalAlign=top;align=center;html=1;shape=mxgraph.aws3.route_table;fillColor=#F58536;gradientColor=none;" vertex="1" parent="1">
          <mxGeometry x="100" y="125" width="70" height="64" as="geometry" />
        </mxCell>
        <mxCell id="k4iZCT5LvtZg_ZwIzSfa-3" value="" style="curved=1;endArrow=classic;html=1;rounded=0;" edge="1" parent="1">
          <mxGeometry width="50" height="50" relative="1" as="geometry">
            <mxPoint x="140" y="135" as="sourcePoint" />
            <mxPoint x="190" y="85" as="targetPoint" />
            <Array as="points">
              <mxPoint x="140" y="85" />
            </Array>
          </mxGeometry>
        </mxCell>
        <mxCell id="k4iZCT5LvtZg_ZwIzSfa-4" value="Routes" style="text;html=1;align=center;verticalAlign=middle;resizable=0;points=[];autosize=1;strokeColor=none;fillColor=none;" vertex="1" parent="1">
          <mxGeometry x="181" y="70" width="60" height="30" as="geometry" />
        </mxCell>
        <mxCell id="k4iZCT5LvtZg_ZwIzSfa-5" value="" style="shape=curlyBracket;whiteSpace=wrap;html=1;rounded=1;flipH=1;" vertex="1" parent="1">
          <mxGeometry x="173" y="123" width="20" height="72" as="geometry" />
        </mxCell>
        <mxCell id="k4iZCT5LvtZg_ZwIzSfa-6" value="Set of rules&lt;br&gt;" style="text;html=1;align=center;verticalAlign=middle;resizable=0;points=[];autosize=1;strokeColor=default;fillColor=none;" vertex="1" parent="1">
          <mxGeometry x="194" y="144" width="80" height="30" as="geometry" />
        </mxCell>
        <mxCell id="k4iZCT5LvtZg_ZwIzSfa-7" value="Determine where&amp;nbsp; network traffic for &lt;br&gt;your subnet or gateway is directed" style="text;html=1;align=center;verticalAlign=middle;resizable=0;points=[];autosize=1;strokeColor=default;fillColor=none;rounded=1;" vertex="1" parent="1">
          <mxGeometry x="327" y="140" width="210" height="40" as="geometry" />
        </mxCell>
        <mxCell id="k4iZCT5LvtZg_ZwIzSfa-8" value="" style="endArrow=classic;html=1;rounded=0;" edge="1" parent="1">
          <mxGeometry width="50" height="50" relative="1" as="geometry">
            <mxPoint x="275" y="160" as="sourcePoint" />
            <mxPoint x="325" y="160" as="targetPoint" />
          </mxGeometry>
        </mxCell>
        <mxCell id="k4iZCT5LvtZg_ZwIzSfa-9" value="&lt;font style=&quot;font-size: 10px;&quot;&gt;Default VPC&lt;/font&gt;" style="points=[[0,0],[0.25,0],[0.5,0],[0.75,0],[1,0],[1,0.25],[1,0.5],[1,0.75],[1,1],[0.75,1],[0.5,1],[0.25,1],[0,1],[0,0.75],[0,0.5],[0,0.25]];outlineConnect=0;gradientColor=none;html=1;whiteSpace=wrap;fontSize=12;fontStyle=0;container=1;pointerEvents=0;collapsible=0;recursiveResize=0;shape=mxgraph.aws4.group;grIcon=mxgraph.aws4.group_vpc;strokeColor=#248814;fillColor=none;verticalAlign=top;align=left;spacingLeft=30;fontColor=#AAB7B8;dashed=0;rounded=1;" vertex="1" parent="1">
          <mxGeometry x="110" y="270" width="100" height="130" as="geometry" />
        </mxCell>
        <mxCell id="k4iZCT5LvtZg_ZwIzSfa-10" value="&lt;font style=&quot;font-size: 10px;&quot;&gt;main&lt;/font&gt;" style="outlineConnect=0;dashed=0;verticalLabelPosition=bottom;verticalAlign=top;align=center;html=1;shape=mxgraph.aws3.route_table;fillColor=#F58536;gradientColor=none;" vertex="1" parent="k4iZCT5LvtZg_ZwIzSfa-9">
          <mxGeometry x="10" y="57" width="30" height="50" as="geometry" />
        </mxCell>
      </root>
    </mxGraphModel>
  </diagram>
</mxfile>
